<svg width="1024" height="1828" viewBox="0 0 1024 1828" fill="none" xmlns="http://www.w3.org/2000/svg">
<g clip-path="url(#clip0_595_1049)">
<rect width="1024" height="1828" fill="#F2F2F2"/>
<g filter="url(#filter0_d_595_1049)">
<path d="M171 593.222C171 539.528 214.528 496 268.222 496V496C311.178 496 346 530.822 346 573.778V872.974C346 926.668 302.472 970.196 248.778 970.196V970.196C205.822 970.196 171 935.374 171 892.418V593.222Z" fill="#C1B7B2" fill-opacity="0.31"/>
</g>
<path fill-rule="evenodd" clip-rule="evenodd" d="M207 1039H206V927.191H207V1039ZM207 872.092H206V856.222C206 802.528 249.528 759 303.222 759C346.178 759 381 793.822 381 836.778V872.092H380V836.778C380 794.375 345.625 760 303.222 760C250.08 760 207 803.08 207 856.222V872.092ZM380 927.191V1039H381V927.191H380Z" fill="#625C5F"/>
</g>
<defs>
<filter id="filter0_d_595_1049" x="156" y="486" width="205" height="504.196" filterUnits="userSpaceOnUse" color-interpolation-filters="sRGB">
<feFlood flood-opacity="0" result="BackgroundImageFix"/>
<feColorMatrix in="SourceAlpha" type="matrix" values="0 0 0 0 0 0 0 0 0 0 0 0 0 0 0 0 0 0 127 0" result="hardAlpha"/>
<feMorphology radius="5" operator="erode" in="SourceAlpha" result="effect1_dropShadow_595_1049"/>
<feOffset dy="5"/>
<feGaussianBlur stdDeviation="10"/>
<feComposite in2="hardAlpha" operator="out"/>
<feColorMatrix type="matrix" values="0 0 0 0 0 0 0 0 0 0 0 0 0 0 0 0 0 0 0.25 0"/>
<feBlend mode="normal" in2="BackgroundImageFix" result="effect1_dropShadow_595_1049"/>
<feBlend mode="normal" in="SourceGraphic" in2="effect1_dropShadow_595_1049" result="shape"/>
</filter>
<clipPath id="clip0_595_1049">
<rect width="1024" height="1828" fill="white"/>
</clipPath>
</defs>
</svg>
