<svg width="124" height="25" viewBox="0 0 124 25" fill="none" xmlns="http://www.w3.org/2000/svg">
<path d="M3.95117 0.616211V8.18945C4.73242 7.33984 5.47949 6.74414 6.19238 6.40234C6.91504 6.05078 7.7207 5.875 8.60938 5.875C9.56641 5.875 10.377 6.0459 11.041 6.3877C11.7148 6.71973 12.2764 7.2373 12.7256 7.94043C13.1748 8.63379 13.3994 9.36621 13.3994 10.1377V17.7695H14.7764C15.0791 17.7695 15.2891 17.8281 15.4062 17.9453C15.5332 18.0527 15.5967 18.1992 15.5967 18.3848C15.5967 18.5605 15.5332 18.707 15.4062 18.8242C15.2891 18.9414 15.0791 19 14.7764 19H10.7773C10.4746 19 10.2598 18.9414 10.1328 18.8242C10.0059 18.707 9.94238 18.5605 9.94238 18.3848C9.94238 18.1992 10.0059 18.0527 10.1328 17.9453C10.2598 17.8281 10.4746 17.7695 10.7773 17.7695H12.1543V10.2256C12.1543 9.33691 11.832 8.59473 11.1875 7.99902C10.5527 7.40332 9.66406 7.10547 8.52148 7.10547C7.62305 7.10547 6.85645 7.3252 6.22168 7.76465C5.7627 8.07715 5.00586 8.81445 3.95117 9.97656V17.7695H5.34277C5.63574 17.7695 5.8457 17.8281 5.97266 17.9453C6.09961 18.0527 6.16309 18.1992 6.16309 18.3848C6.16309 18.5605 6.09961 18.707 5.97266 18.8242C5.8457 18.9414 5.63574 19 5.34277 19H1.3291C1.03613 19 0.826172 18.9414 0.699219 18.8242C0.572266 18.707 0.508789 18.5605 0.508789 18.3848C0.508789 18.1992 0.572266 18.0527 0.699219 17.9453C0.826172 17.8281 1.03613 17.7695 1.3291 17.7695H2.7207V1.86133H1.06543C0.772461 1.86133 0.5625 1.80273 0.435547 1.68555C0.308594 1.56836 0.245117 1.41699 0.245117 1.23145C0.245117 1.05566 0.308594 0.90918 0.435547 0.791992C0.5625 0.674805 0.772461 0.616211 1.06543 0.616211H3.95117ZM30.2598 19L28.7363 19.0146L26.0264 11.1045L23.3311 19.0146L21.8076 19L19.2588 7.55957H18.6582C18.3652 7.55957 18.1553 7.50098 18.0283 7.38379C17.9014 7.2666 17.8379 7.11523 17.8379 6.92969C17.8379 6.75391 17.9014 6.60742 18.0283 6.49023C18.1553 6.37305 18.3652 6.31445 18.6582 6.31445H22.042C22.335 6.31445 22.5449 6.37305 22.6719 6.49023C22.7988 6.60742 22.8623 6.75879 22.8623 6.94434C22.8623 7.12012 22.7988 7.2666 22.6719 7.38379C22.5449 7.50098 22.335 7.55957 22.042 7.55957H20.4746L22.6572 17.3154L25.2793 9.52246H26.7441L29.4395 17.3154L31.5342 7.55957H29.9814C29.6885 7.55957 29.4736 7.50098 29.3369 7.38379C29.21 7.2666 29.1465 7.11523 29.1465 6.92969C29.1465 6.75391 29.21 6.60742 29.3369 6.49023C29.4639 6.37305 29.6787 6.31445 29.9814 6.31445H33.3506C33.6533 6.31445 33.8682 6.37305 33.9951 6.49023C34.1221 6.60742 34.1855 6.75879 34.1855 6.94434C34.1855 7.12012 34.1221 7.2666 33.9951 7.38379C33.8682 7.50098 33.6533 7.55957 33.3506 7.55957H32.7646L30.2598 19ZM44.6445 0.000976562V3.17969H42.8281V0.000976562H44.6445ZM44.6885 6.31445V17.7695H49.5225C49.8252 17.7695 50.04 17.8281 50.167 17.9453C50.2939 18.0527 50.3574 18.1992 50.3574 18.3848C50.3574 18.5605 50.2939 18.707 50.167 18.8242C50.04 18.9414 49.8252 19 49.5225 19H38.624C38.3311 19 38.1211 18.9414 37.9941 18.8242C37.8672 18.707 37.8037 18.5605 37.8037 18.3848C37.8037 18.1992 37.8672 18.0527 37.9941 17.9453C38.1211 17.8281 38.3311 17.7695 38.624 17.7695H43.458V7.55957H39.8691C39.5762 7.55957 39.3613 7.50098 39.2246 7.38379C39.0977 7.2666 39.0342 7.12012 39.0342 6.94434C39.0342 6.75879 39.0977 6.60742 39.2246 6.49023C39.3516 6.37305 39.5664 6.31445 39.8691 6.31445H44.6885ZM58.0771 6.31445V8.1748C58.9365 7.30566 59.7129 6.70508 60.4062 6.37305C61.0996 6.04102 61.8809 5.875 62.75 5.875C63.6875 5.875 64.542 6.0752 65.3135 6.47559C65.8604 6.76855 66.3535 7.25684 66.793 7.94043C67.2422 8.61426 67.4668 9.30762 67.4668 10.0205V17.7695H68.5068C68.7998 17.7695 69.0098 17.8281 69.1367 17.9453C69.2637 18.0527 69.3271 18.1992 69.3271 18.3848C69.3271 18.5605 69.2637 18.707 69.1367 18.8242C69.0098 18.9414 68.7998 19 68.5068 19H65.2109C64.9082 19 64.6934 18.9414 64.5664 18.8242C64.4395 18.707 64.376 18.5605 64.376 18.3848C64.376 18.1992 64.4395 18.0527 64.5664 17.9453C64.6934 17.8281 64.9082 17.7695 65.2109 17.7695H66.2363V10.2256C66.2363 9.35645 65.9189 8.62402 65.2842 8.02832C64.6494 7.42285 63.7998 7.12012 62.7354 7.12012C61.9248 7.12012 61.2217 7.28613 60.626 7.61816C60.0303 7.94043 59.1807 8.75098 58.0771 10.0498V17.7695H59.4688C59.7617 17.7695 59.9717 17.8281 60.0986 17.9453C60.2256 18.0527 60.2891 18.1992 60.2891 18.3848C60.2891 18.5605 60.2256 18.707 60.0986 18.8242C59.9717 18.9414 59.7617 19 59.4688 19H55.4551C55.1621 19 54.9521 18.9414 54.8252 18.8242C54.6982 18.707 54.6348 18.5605 54.6348 18.3848C54.6348 18.1992 54.6982 18.0527 54.8252 17.9453C54.9521 17.8281 55.1621 17.7695 55.4551 17.7695H56.8467V7.55957H55.8066C55.5137 7.55957 55.3037 7.50098 55.1768 7.38379C55.0498 7.2666 54.9863 7.11523 54.9863 6.92969C54.9863 6.75391 55.0498 6.60742 55.1768 6.49023C55.3037 6.37305 55.5137 6.31445 55.8066 6.31445H58.0771ZM80.1523 19L74.4395 7.55957H74.0732C73.7803 7.55957 73.5703 7.50098 73.4434 7.38379C73.3164 7.2666 73.2529 7.12012 73.2529 6.94434C73.2529 6.81738 73.2822 6.70508 73.3408 6.60742C73.4092 6.5 73.4922 6.42676 73.5898 6.3877C73.6973 6.33887 73.8584 6.31445 74.0732 6.31445H77.4424C77.7354 6.31445 77.9453 6.37305 78.0723 6.49023C78.1992 6.60742 78.2627 6.75879 78.2627 6.94434C78.2627 7.12012 78.1992 7.2666 78.0723 7.38379C77.9453 7.50098 77.7354 7.55957 77.4424 7.55957H75.7871L80.8115 17.6523L85.7627 7.55957H84.1074C83.8145 7.55957 83.6045 7.50098 83.4775 7.38379C83.3506 7.2666 83.2871 7.11523 83.2871 6.92969C83.2871 6.75391 83.3506 6.60742 83.4775 6.49023C83.6045 6.37305 83.8145 6.31445 84.1074 6.31445H87.4619C87.7646 6.31445 87.9795 6.37305 88.1064 6.49023C88.2334 6.60742 88.2969 6.75879 88.2969 6.94434C88.2969 7.07129 88.2578 7.18848 88.1797 7.2959C88.1016 7.40332 88.0137 7.47656 87.916 7.51562C87.8184 7.54492 87.5449 7.55957 87.0957 7.55957L79.3027 23.4238H81.2217C81.5146 23.4238 81.7246 23.4775 81.8516 23.585C81.9785 23.7021 82.042 23.8535 82.042 24.0391C82.042 24.2148 81.9785 24.3613 81.8516 24.4785C81.7246 24.5957 81.5146 24.6543 81.2217 24.6543H74.1318C73.8389 24.6543 73.6289 24.5957 73.502 24.4785C73.375 24.3711 73.3115 24.2246 73.3115 24.0391C73.3115 23.8535 73.375 23.7021 73.502 23.585C73.6289 23.4775 73.8389 23.4238 74.1318 23.4238H77.9844L80.1523 19ZM104.747 12.9502H92.208C92.4229 14.542 93.0869 15.8262 94.2002 16.8027C95.3232 17.7695 96.71 18.2529 98.3604 18.2529C99.2783 18.2529 100.24 18.1016 101.246 17.7988C102.252 17.4961 103.072 17.0957 103.707 16.5977C103.893 16.4512 104.054 16.3779 104.19 16.3779C104.347 16.3779 104.483 16.4414 104.601 16.5684C104.718 16.6855 104.776 16.8271 104.776 16.9932C104.776 17.1592 104.698 17.3203 104.542 17.4766C104.073 17.9648 103.238 18.4238 102.037 18.8535C100.846 19.2734 99.6201 19.4834 98.3604 19.4834C96.251 19.4834 94.4883 18.7949 93.0723 17.418C91.666 16.0312 90.9629 14.3564 90.9629 12.3936C90.9629 10.6064 91.6221 9.07324 92.9404 7.79395C94.2686 6.51465 95.9092 5.875 97.8623 5.875C99.874 5.875 101.529 6.53418 102.828 7.85254C104.127 9.16113 104.767 10.8604 104.747 12.9502ZM103.502 11.7051C103.258 10.3477 102.613 9.24414 101.568 8.39453C100.533 7.54492 99.2979 7.12012 97.8623 7.12012C96.4268 7.12012 95.1914 7.54004 94.1562 8.37988C93.1211 9.21973 92.4766 10.3281 92.2227 11.7051H103.502ZM112.13 6.31445V8.1748C112.989 7.30566 113.766 6.70508 114.459 6.37305C115.152 6.04102 115.934 5.875 116.803 5.875C117.74 5.875 118.595 6.0752 119.366 6.47559C119.913 6.76855 120.406 7.25684 120.846 7.94043C121.295 8.61426 121.52 9.30762 121.52 10.0205V17.7695H122.56C122.853 17.7695 123.062 17.8281 123.189 17.9453C123.316 18.0527 123.38 18.1992 123.38 18.3848C123.38 18.5605 123.316 18.707 123.189 18.8242C123.062 18.9414 122.853 19 122.56 19H119.264C118.961 19 118.746 18.9414 118.619 18.8242C118.492 18.707 118.429 18.5605 118.429 18.3848C118.429 18.1992 118.492 18.0527 118.619 17.9453C118.746 17.8281 118.961 17.7695 119.264 17.7695H120.289V10.2256C120.289 9.35645 119.972 8.62402 119.337 8.02832C118.702 7.42285 117.853 7.12012 116.788 7.12012C115.978 7.12012 115.274 7.28613 114.679 7.61816C114.083 7.94043 113.233 8.75098 112.13 10.0498V17.7695H113.521C113.814 17.7695 114.024 17.8281 114.151 17.9453C114.278 18.0527 114.342 18.1992 114.342 18.3848C114.342 18.5605 114.278 18.707 114.151 18.8242C114.024 18.9414 113.814 19 113.521 19H109.508C109.215 19 109.005 18.9414 108.878 18.8242C108.751 18.707 108.688 18.5605 108.688 18.3848C108.688 18.1992 108.751 18.0527 108.878 17.9453C109.005 17.8281 109.215 17.7695 109.508 17.7695H110.899V7.55957H109.859C109.566 7.55957 109.356 7.50098 109.229 7.38379C109.103 7.2666 109.039 7.11523 109.039 6.92969C109.039 6.75391 109.103 6.60742 109.229 6.49023C109.356 6.37305 109.566 6.31445 109.859 6.31445H112.13Z" fill="black"/>
</svg>
